<svg xmlns="http://www.w3.org/2000/svg" width="48" height="48" fill="none" viewBox="0 0 48 48">
  <path fill="#5827B0" d="M0 8c0-4.347 3.653-8 8-8h32c4.347 0 8 3.653 8 8v32c0 4.347-3.653 8-8 8H8c-4.347 0-8-3.653-8-8V8z"/>
  <path fill="#fff" d="M25.68 10c3.307 0 4.96 3.293 4.96 9.88v1.6c0 6.613-1.653 9.92-4.96 9.92-1.84 0-3.04-.96-3.6-2.88l-.28.04c.213 1.627.32 4.973.32 10.04H17V10.4l4.8-.04v2.48l.28.04c.56-1.92 1.76-2.88 3.6-2.88zm-2 16.64c.613 0 1.053-.413 1.32-1.24.267-.827.4-2.227.4-4.2v-1.04c0-1.92-.133-3.293-.4-4.12-.267-.853-.707-1.28-1.32-1.28-1.04 0-1.56 1.013-1.56 3.04v6.08c0 .853.133 1.533.4 2.04.267.48.653.72 1.16.72z"/>
  <path fill="#fff" d="M25.68 10c3.307 0 4.96 3.293 4.96 9.88v1.6c0 6.613-1.653 9.92-4.96 9.92-1.84 0-3.04-.96-3.6-2.88l-.28.04c.213 1.627.32 4.973.32 10.04H17V10.4l4.8-.04v2.48l.28.04c.56-1.92 1.76-2.88 3.6-2.88zm-2 16.64c.613 0 1.053-.413 1.32-1.24.267-.827.4-2.227.4-4.2v-1.04c0-1.92-.133-3.293-.4-4.12-.267-.853-.707-1.28-1.32-1.28-1.04 0-1.56 1.013-1.56 3.04v6.08c0 .853.133 1.533.4 2.04.267.48.653.72 1.16.72z"/>
</svg>
