<svg width="69" height="36" fill="none" viewBox="0 0 69 36">
  <path d="M9.2 7c3.307 0 4.96 3.293 4.96 9.88v1.6c0 6.613-1.653 9.92-4.96 9.92-1.84 0-3.04-.96-3.6-2.88l-.28.04c.213 1.627.32 4.973.32 10.04H.52V7.4l4.8-.04v2.48l.28.04C6.16 7.96 7.36 7 9.2 7zm-2 16.64c.613 0 1.053-.413 1.32-1.24.267-.827.4-2.227.4-4.2v-1.04c0-1.92-.133-3.293-.4-4.12-.267-.853-.707-1.28-1.32-1.28-1.04 0-1.56 1.013-1.56 3.04v6.08c0 .853.133 1.533.4 2.04.267.48.653.72 1.16.72zm17.89-11.12c-.293-.08-.587-.147-.88-.2a4.913 4.913 0 0 0-.88-.08c-2.027 0-3.04 1.653-3.04 4.96v10.76h-5.08V7.36h4.8l-.32 2.96.28.04c.667-2.133 1.84-3.2 3.52-3.2.293 0 .587.027.88.08.32.053.56.12.72.2v5.08zM26 7.4h5.12V28H26V7.4zm0-5.72a1 1 0 0 1 1-1h3.12a1 1 0 0 1 1 1v2.08a1 1 0 0 1-1 1H27a1 1 0 0 1-1-1V1.68zM40.408 28V14.32c0-1.707-.507-2.56-1.52-2.56-.613 0-1.053.307-1.32.92-.267.587-.4 1.547-.4 2.88V28h-5.12V7.4h5.12l-.32 2.96.28.04c.773-2.267 2.214-3.4 4.32-3.4 2.107 0 3.36 1.12 3.76 3.36l.28.04c.694-2.267 2.12-3.4 4.28-3.4 2.747 0 4.12 1.773 4.12 5.32V28h-5.12V14.32c0-.933-.107-1.587-.32-1.96-.213-.4-.587-.6-1.12-.6-.64 0-1.107.293-1.4.88-.267.587-.4 1.56-.4 2.92V28h-5.12zm27.725 0h-4.96l.36-3.12-.28-.04c-.64 2.373-2.027 3.56-4.16 3.56-1.414 0-2.48-.48-3.2-1.44-.72-.987-1.08-2.427-1.08-4.32 0-2.293.56-3.987 1.68-5.08 1.12-1.093 2.853-1.64 5.2-1.64h1.48v-1.64c0-1.147-.107-1.933-.32-2.36-.214-.453-.587-.68-1.12-.68-.587 0-1.014.28-1.28.84-.24.533-.36 1.453-.36 2.76h-4.68v-.32c0-5.04 2.213-7.56 6.64-7.56 2.08 0 3.613.56 4.6 1.68.986 1.12 1.48 2.867 1.48 5.24V28zm-6.68-3.48c1.146 0 1.72-1.013 1.72-3.04v-1.96h-.8c-.907 0-1.547.187-1.92.56-.347.373-.52 1.027-.52 1.96 0 1.653.507 2.48 1.52 2.48z"/>
</svg>
